<?xml version="1.0" encoding="UTF-8" standalone="no"?>
<!DOCTYPE svg PUBLIC "-//W3C//DTD SVG 1.1//EN" "http://www.w3.org/Graphics/SVG/1.1/DTD/svg11.dtd">
<svg width="100%" height="100%" viewBox="0 0 148 143" version="1.1" xmlns="http://www.w3.org/2000/svg" xmlns:xlink="http://www.w3.org/1999/xlink" xml:space="preserve" xmlns:serif="http://www.serif.com/" style="fill-rule:evenodd;clip-rule:evenodd;stroke-linejoin:round;stroke-miterlimit:2;">
    <g id="Tavola-da-disegno1" serif:id="Tavola da disegno1" transform="matrix(0.27959,0,0,0.997851,-38.1117,-211.387)">
        <rect x="136.313" y="211.843" width="527.374" height="143.212" style="fill:none;"/>
        <clipPath id="_clip1">
            <rect x="136.313" y="211.843" width="527.374" height="143.212"/>
        </clipPath>
        <g clip-path="url(#_clip1)">
            <g transform="matrix(3.57667,0,0,1.00215,-517.851,0.0797703)">
                <g transform="matrix(0.813708,0,0,0.813708,-14.3991,138.859)">
                    <path d="M280.665,265.692C273.212,265.692 266.755,264.016 261.294,260.664C255.833,257.313 251.626,252.543 248.673,246.356C245.72,240.168 244.243,232.856 244.243,224.418C244.243,215.981 245.732,208.657 248.708,202.446C251.685,196.235 255.927,191.442 261.435,188.067C266.943,184.692 273.47,183.004 281.017,183.004C288.47,183.004 294.892,184.657 300.282,187.961C305.673,191.266 309.833,195.989 312.763,202.129C315.693,208.27 317.157,215.559 317.157,223.996C317.157,232.575 315.669,239.981 312.693,246.215C309.716,252.45 305.509,257.254 300.071,260.629C294.634,264.004 288.165,265.692 280.665,265.692ZM280.736,248.957C285.564,248.957 289.407,246.743 292.267,242.313C295.126,237.883 296.556,231.895 296.556,224.348C296.556,216.754 295.126,210.754 292.267,206.348C289.407,201.942 285.564,199.739 280.736,199.739C275.861,199.739 271.993,201.953 269.134,206.383C266.275,210.813 264.845,216.801 264.845,224.348C264.845,231.895 266.275,237.883 269.134,242.313C271.993,246.743 275.861,248.957 280.736,248.957Z" style="fill:rgb(0,126,9);fill-rule:nonzero;"/>
                </g>
                <g transform="matrix(0.813708,0,0,0.813708,-84.9438,63.4385)">
                    <path d="M367.361,265.692C359.907,265.692 353.45,264.016 347.989,260.664C342.529,257.313 338.321,252.543 335.368,246.356C332.415,240.168 330.939,232.856 330.939,224.418C330.939,215.981 332.427,208.657 335.404,202.446C338.38,196.235 342.622,191.442 348.13,188.067C353.638,184.692 360.165,183.004 367.712,183.004C375.165,183.004 381.587,184.657 386.978,187.961C392.368,191.266 396.529,195.989 399.458,202.129C402.388,208.27 403.853,215.559 403.853,223.996C403.853,232.575 402.364,239.981 399.388,246.215C396.411,252.45 392.204,257.254 386.767,260.629C381.329,264.004 374.861,265.692 367.361,265.692ZM367.431,248.957C372.259,248.957 376.103,246.743 378.962,242.313C381.821,237.883 383.251,231.895 383.251,224.348C383.251,216.754 381.821,210.754 378.962,206.348C376.103,201.942 372.259,199.739 367.431,199.739C362.556,199.739 358.689,201.953 355.829,206.383C352.97,210.813 351.54,216.801 351.54,224.348C351.54,231.895 352.97,237.883 355.829,242.313C358.689,246.743 362.556,248.957 367.431,248.957Z" style="fill:rgb(0,126,9);fill-rule:nonzero;"/>
                </g>
                <g transform="matrix(1.81753,0,0,1.81753,-1145.45,-123.716)">
                    <path d="M790.501,222.59L763.712,184.903L787.759,184.903L800.837,208.387L811.525,222.59L800.837,237.145L785.439,263.653L761.392,263.653L790.501,222.59Z" style="fill:rgb(0,126,9);fill-rule:nonzero;"/>
                </g>
            </g>
        </g>
    </g>
</svg>
