<?xml version="1.0" encoding="UTF-8" standalone="no"?><!DOCTYPE svg PUBLIC "-//W3C//DTD SVG 1.1//EN" "http://www.w3.org/Graphics/SVG/1.1/DTD/svg11.dtd"><svg width="100%" height="100%" viewBox="0 0 540 150" version="1.1" xmlns="http://www.w3.org/2000/svg" xmlns:xlink="http://www.w3.org/1999/xlink" xml:space="preserve" xmlns:serif="http://www.serif.com/" style="fill-rule:evenodd;clip-rule:evenodd;stroke-linejoin:round;stroke-miterlimit:2;"><rect id="Tavola-da-disegno1" serif:id="Tavola da disegno1" x="0" y="0" width="540" height="150" style="fill:none;"/><g><path d="M6.665,4.084l45.914,0c15.972,0 27.904,2.991 35.795,8.973c7.955,6.045 11.932,15.05 11.932,27.013c-0,9.037 -2.355,16.196 -7.064,21.478c-4.772,5.154 -11.677,8.145 -20.713,8.972c10.881,1.019 19.091,4.678 24.627,10.978c5.473,6.236 8.209,14.986 8.209,26.249c-0,13.682 -4.136,23.61 -12.409,29.782c-8.273,6.173 -21.732,9.259 -40.377,9.259l-45.914,0l0,-142.704Zm45.914,55.555c7.191,-0 12.282,-1.305 15.272,-3.914c1.464,-1.273 2.578,-2.88 3.341,-4.821c0.764,-1.94 1.146,-4.502 1.146,-7.684c-0,-5.727 -1.527,-9.959 -4.582,-12.695c-1.336,-1.145 -3.166,-2.1 -5.489,-2.864c-2.322,-0.763 -5.552,-1.145 -9.688,-1.145l-18.709,-0l-0,33.123l18.709,-0Zm-0,64.622c8.972,0 15.272,-1.527 18.9,-4.582c3.563,-3.054 5.345,-8.368 5.345,-15.941c0,-7.7 -1.877,-13.236 -5.632,-16.609c-3.754,-3.372 -9.959,-5.059 -18.613,-5.059l-18.709,0l-0,42.191l18.709,0Z" style="fill:#fff;fill-rule:nonzero;"/><path d="M140.177,146.788c-6.065,0 -11.319,-1.363 -15.763,-4.091c-4.443,-2.727 -7.866,-6.608 -10.269,-11.643c-2.403,-5.034 -3.605,-10.985 -3.605,-17.85c0,-6.866 1.211,-12.826 3.633,-17.88c2.422,-5.053 5.874,-8.954 10.356,-11.7c4.482,-2.746 9.793,-4.119 15.934,-4.119c6.065,-0 11.29,1.344 15.677,4.033c4.386,2.689 7.771,6.532 10.155,11.529c2.384,4.997 3.576,10.928 3.576,17.793c-0,6.981 -1.211,13.007 -3.633,18.08c-2.422,5.073 -5.846,8.983 -10.27,11.729c-4.425,2.746 -9.688,4.119 -15.791,4.119Zm0.057,-13.617c3.929,0 7.056,-1.802 9.383,-5.406c2.327,-3.605 3.49,-8.478 3.49,-14.618c0,-6.18 -1.163,-11.062 -3.49,-14.647c-2.327,-3.586 -5.454,-5.378 -9.383,-5.378c-3.967,-0 -7.114,1.802 -9.44,5.406c-2.327,3.605 -3.49,8.478 -3.49,14.619c-0,6.14 1.163,11.013 3.49,14.618c2.326,3.604 5.473,5.406 9.44,5.406Z" style="fill:#007e09;fill-rule:nonzero;"/><path d="M140.177,71.368c-6.065,-0 -11.319,-1.364 -15.763,-4.091c-4.443,-2.727 -7.866,-6.608 -10.269,-11.643c-2.403,-5.035 -3.605,-10.985 -3.605,-17.851c0,-6.866 1.211,-12.825 3.633,-17.879c2.422,-5.054 5.874,-8.954 10.356,-11.7c4.482,-2.747 9.793,-4.12 15.934,-4.12c6.065,0 11.29,1.345 15.677,4.034c4.386,2.689 7.771,6.532 10.155,11.528c2.384,4.997 3.576,10.928 3.576,17.794c-0,6.98 -1.211,13.006 -3.633,18.079c-2.422,5.073 -5.846,8.983 -10.27,11.729c-4.425,2.747 -9.688,4.12 -15.791,4.12Zm0.057,-13.617c3.929,-0 7.056,-1.802 9.383,-5.407c2.327,-3.604 3.49,-8.477 3.49,-14.618c0,-6.179 -1.163,-11.061 -3.49,-14.647c-2.327,-3.585 -5.454,-5.378 -9.383,-5.378c-3.967,0 -7.114,1.802 -9.44,5.407c-2.327,3.604 -3.49,8.477 -3.49,14.618c-0,6.141 1.163,11.014 3.49,14.618c2.326,3.605 5.473,5.407 9.44,5.407Z" style="fill:#007e09;fill-rule:nonzero;"/><path d="M242.646,146.788c-12.652,0 -21.761,-3.33 -27.327,-9.991c-5.566,-6.661 -8.349,-17.534 -8.349,-32.619l0,-79.564l-27.099,-0l-0,-20.53l53.833,0l0,100.094c0,7.908 1.262,13.565 3.787,16.971c2.524,3.406 6.737,5.11 12.637,5.11l21.351,-0l-0,20.529l-28.833,0Z" style="fill:#fff;fill-rule:nonzero;"/><path d="M280.585,4.084l88.892,0l-0,24.852l-60.695,-0l-0,31.733l55.246,-0l0,24.851l-55.246,0l-0,61.268l-28.197,0l0,-142.704Z" style="fill:#fff;fill-rule:nonzero;"/><path d="M340.244,147.493c-4.823,-0 -8.296,-1.27 -10.418,-3.809c-2.122,-2.539 -3.182,-6.684 -3.182,-12.435l-0,-30.332l-10.331,-0l-0,-7.827l20.522,0l0,38.159c0,3.014 0.482,5.171 1.444,6.469c0.962,1.299 2.568,1.948 4.818,1.948l8.139,0l0,7.827l-10.992,-0Z" style="fill:#fff;fill-rule:nonzero;"/><path d="M361.411,103.63c-0.696,-0 -1.044,-0.348 -1.044,-1.044l0,-9.809c0,-0.696 0.348,-1.043 1.044,-1.043l8.105,-0c0.695,-0 1.043,0.347 1.043,1.043l0,9.809c0,0.696 -0.348,1.044 -1.043,1.044l-8.105,-0Zm12.557,44.002c-4.823,0 -8.296,-1.27 -10.418,-3.809c-2.122,-2.539 -3.183,-6.684 -3.183,-12.435l0,-15.305l-8.243,-0l-0,-7.827l18.435,0l0,23.132c0,3.014 0.481,5.171 1.444,6.47c0.962,1.298 2.568,1.948 4.817,1.948l8.14,-0l-0,7.826l-10.992,0Z" style="fill:#fff;fill-rule:nonzero;"/><path d="M443.433,72.582l-48.69,-68.498l43.706,0l23.77,42.684l23.897,-42.684l43.706,0l-48.179,68.498l52.396,74.633l-43.706,-0l-28.114,-48.179l-27.988,48.179l-43.706,-0l52.908,-74.633Z" style="fill:#fff;fill-rule:nonzero;"/><path d="M443.433,72.582l-48.69,-68.498l43.706,0l23.77,42.684l19.424,25.814l-19.424,26.454l-27.988,48.179l-43.706,-0l52.908,-74.633Z" style="fill:#007e09;fill-rule:nonzero;"/></g></svg>